<svg width="374" height="360" viewBox="0 0 374 360" fill="none" xmlns="http://www.w3.org/2000/svg">
<g clip-path="url(#clip0)">
<path d="M105.818 359.804C149.877 359.804 185.594 355.645 185.594 350.515C185.594 345.385 149.877 341.226 105.818 341.226C61.7589 341.226 26.042 345.385 26.042 350.515C26.042 355.645 61.7589 359.804 105.818 359.804Z" fill="#0B0A0D"/>
<path d="M152.332 270.113L62.8326 269.929C60.5607 269.924 58.3838 269.017 56.7807 267.408C55.1776 265.798 54.2796 263.617 54.2842 261.345L54.4961 158.461C54.5008 156.189 55.4078 154.012 57.0175 152.409C58.6273 150.806 60.8079 149.908 63.0798 149.912L152.58 150.097C154.851 150.101 157.028 151.008 158.631 152.618C160.235 154.228 161.133 156.408 161.128 158.68L160.916 261.565C160.911 263.837 160.004 266.014 158.395 267.617C156.785 269.22 154.604 270.118 152.332 270.113V270.113Z" fill="#7159C1"/>
<path d="M67.1322 258.513L148.084 258.679L148.298 154.715L67.3463 154.548L67.1322 258.513Z" fill="#E8F4FC"/>
<path d="M148.293 157.184C139.796 161.328 128.047 162.443 112.332 162.411C93.8737 162.373 80.8938 160.772 72.2458 154.558L148.297 154.715L148.293 157.184Z" fill="#A1C2E2"/>
<path d="M72.1606 220.494L143.213 220.642C152.887 220.662 152.554 229.76 152.527 240.983C152.505 252.203 152.805 261.3 143.13 261.281L72.0767 261.135C62.402 261.115 62.7362 252.017 62.7625 240.794C62.7849 229.573 62.4866 220.475 72.1606 220.494Z" fill="#E8F4FC"/>
<path d="M117.995 296.809L148.026 296.871L148.106 257.79L118.075 257.728L117.995 296.809Z" fill="#E8F4FC"/>
<path d="M117.899 343.486L147.93 343.548L150.304 299.734L116.031 299.661L117.899 343.486Z" fill="#E8F4FC"/>
<path d="M156.254 343.566C156.254 343.566 161.516 324.48 147.965 326.738C134.413 328.997 123.286 343.498 123.286 343.498L156.254 343.566Z" fill="#A1C2E2"/>
<path d="M117.894 346.343L156.248 346.422L156.254 343.566L117.9 343.487L117.894 346.343Z" fill="#7159C1"/>
<path d="M121.653 343.495L117.899 343.486L117.569 335.752C122.035 337.533 121.653 343.495 121.653 343.495Z" fill="#A1C2E2"/>
<path d="M97.143 257.672L67.1137 257.622L67.0496 296.701L97.079 296.751L97.143 257.672Z" fill="#E8F4FC"/>
<path d="M179.818 150.006L187.845 179.322L152.634 184.431L148.323 154.709L179.818 150.006Z" fill="#E8F4FC"/>
<path d="M214.687 132.896L227.72 159.948L193.541 178.496L178.879 148.057L214.687 132.896Z" fill="#E8F4FC"/>
<path d="M228.826 159.418L215.788 132.346L235.721 122.745C238.082 121.608 240.798 121.456 243.272 122.321C245.745 123.187 247.773 124.999 248.91 127.36L251.456 132.646C253.102 136.062 253.323 139.992 252.071 143.571C250.82 147.151 248.198 150.086 244.782 151.733L228.826 159.418Z" fill="#E8F4FC"/>
<path d="M96.9675 343.444L66.9364 343.382L64.7423 299.556L99.0157 299.626L96.9675 343.444Z" fill="#E8F4FC"/>
<path d="M58.6134 343.365C58.6134 343.365 53.4304 324.259 66.9713 326.572C80.5122 328.884 91.5814 343.433 91.5814 343.433L58.6134 343.365Z" fill="#A1C2E2"/>
<path d="M96.9673 343.444L58.6134 343.365L58.6075 346.221L96.9614 346.3L96.9673 343.444Z" fill="#7159C1"/>
<path d="M93.2135 343.436L96.9673 343.444L97.3291 335.71C92.8565 337.473 93.2135 343.436 93.2135 343.436Z" fill="#A1C2E2"/>
<path d="M216.031 132.859L216.188 123.367C216.215 122.204 216.702 121.099 217.541 120.293C218.38 119.487 219.503 119.045 220.667 119.064C221.83 119.084 222.938 119.562 223.75 120.396C224.562 121.229 225.012 122.349 225 123.513L224.883 130.73C227.898 131.702 230.95 133.689 231.956 137.713C234.16 146.52 223.549 148.461 223.549 148.461L216.031 132.859Z" fill="#A1C2E2"/>
<path d="M41.9468 232.889L16.3841 217.133L35.1654 183.081L63.9268 200.809L41.9468 232.889Z" fill="#E8F4FC"/>
<path d="M6.29877 233.491L15.7391 218.176L33.6797 229.234L41.3041 233.933L41.2324 234.049L43.0794 245.649C43.1703 246.221 43.1478 246.805 43.013 247.368C42.8783 247.931 42.634 248.462 42.294 248.93C41.9541 249.399 41.5253 249.796 41.0319 250.099C40.5386 250.401 39.9904 250.604 39.4188 250.695C38.2642 250.879 37.084 250.596 36.1378 249.91C35.1916 249.223 34.5568 248.189 34.3731 247.034L34.1423 245.555L29.5932 252.93C28.2474 255.113 26.0897 256.672 23.5946 257.264C21.0995 257.857 18.4713 257.434 16.288 256.089L10.8702 252.749C7.71123 250.8 5.45516 247.678 4.59794 244.066C3.74071 240.455 4.35248 236.652 6.29877 233.491Z" fill="#E8F4FC"/>
<path d="M62.6707 157.778L66.5 197.384L63.2651 200.795L41.4745 180.131L62.6707 157.778Z" fill="#E8F4FC"/>
<path d="M117.989 299.665L148.02 299.727L148.026 296.871L117.995 296.809L117.989 299.665Z" fill="#7159C1"/>
<path d="M97.0644 296.766L67.0334 296.705L67.0276 299.561L97.0585 299.622L97.0644 296.766Z" fill="#7159C1"/>
<path d="M214.441 132.378L227.969 160.464L229.073 159.932L215.544 131.846L214.441 132.378Z" fill="#7159C1"/>
<path d="M42.4331 233.189L15.8953 216.832L15.2525 217.875L41.7903 234.232L42.4331 233.189Z" fill="#7159C1"/>
<path d="M38.0281 184.845C38.2311 183.858 38.644 182.927 39.2386 182.113C39.8332 181.3 40.5958 180.624 41.4745 180.131L62.0745 199.667L38.0281 184.845Z" fill="#7159C1"/>
<path d="M67.346 154.548C65.3485 154.136 63.064 156.286 62.6707 157.778L66.4991 197.383L67.2578 197.253L67.346 154.548Z" fill="#7159C1"/>
<path d="M152.633 184.431C151.236 184.987 149.708 185.125 148.235 184.828L148.318 154.715L152.633 184.431Z" fill="#7159C1"/>
<path d="M193.032 177.439C191.572 178.647 189.739 179.312 187.845 179.322L179.817 150.006L193.032 177.439Z" fill="#7159C1"/>
<path d="M81.2629 212.576L134.143 212.685L134.206 181.882L81.3264 181.773L81.2629 212.576Z" fill="#4061BF"/>
<path d="M82.8185 211.236L132.595 211.317L132.641 183.245L82.8645 183.163L82.8185 211.236Z" fill="#E8F4FC"/>
<path d="M122.842 189.916C122.841 190.4 122.983 190.874 123.251 191.277C123.52 191.68 123.901 191.995 124.348 192.181C124.795 192.367 125.287 192.417 125.762 192.324C126.237 192.23 126.674 191.998 127.017 191.656C127.36 191.315 127.594 190.879 127.69 190.404C127.785 189.929 127.738 189.437 127.553 188.989C127.369 188.542 127.056 188.159 126.654 187.889C126.252 187.619 125.779 187.474 125.295 187.474C124.973 187.473 124.655 187.535 124.358 187.658C124.06 187.78 123.79 187.96 123.562 188.187C123.334 188.413 123.154 188.683 123.03 188.98C122.906 189.276 122.843 189.595 122.842 189.916Z" fill="#8CC84B"/>
<path d="M122.811 204.604C122.81 205.088 122.953 205.562 123.221 205.965C123.49 206.368 123.872 206.682 124.319 206.869C124.766 207.055 125.258 207.104 125.733 207.01C126.208 206.917 126.644 206.684 126.987 206.342C127.33 206.001 127.564 205.565 127.659 205.09C127.755 204.615 127.707 204.123 127.522 203.676C127.338 203.228 127.025 202.845 126.623 202.575C126.221 202.306 125.748 202.161 125.263 202.16C124.942 202.16 124.624 202.223 124.326 202.345C124.029 202.468 123.759 202.648 123.531 202.874C123.303 203.101 123.123 203.371 122.999 203.668C122.876 203.965 122.812 204.283 122.811 204.604Z" fill="#5667F9"/>
<path d="M122.827 197.26C122.826 197.745 122.969 198.218 123.237 198.621C123.505 199.025 123.887 199.339 124.334 199.525C124.781 199.711 125.273 199.761 125.748 199.667C126.223 199.574 126.66 199.341 127.003 199C127.346 198.658 127.58 198.222 127.675 197.747C127.77 197.273 127.723 196.78 127.538 196.333C127.354 195.885 127.041 195.502 126.638 195.232C126.236 194.963 125.763 194.818 125.279 194.817C124.63 194.816 124.007 195.073 123.547 195.531C123.087 195.989 122.828 196.611 122.827 197.26Z" fill="#2AC7E3"/>
<path d="M118.031 190.525L99.9147 190.487L99.887 203.938L118.003 203.976L118.031 190.525Z" fill="#7159C1"/>
<path d="M86.5746 189.048L96.4076 189.069L96.4124 186.744L86.5794 186.723L86.5746 189.048Z" fill="#221C38"/>
<path d="M86.5655 193.698L96.3984 193.718L96.4032 191.393L86.5702 191.373L86.5655 193.698Z" fill="#221C38"/>
<path d="M86.5559 198.348L96.3889 198.368L96.3937 196.043L86.5607 196.023L86.5559 198.348Z" fill="#221C38"/>
<path d="M86.5459 202.997L96.3788 203.017L96.3836 200.692L86.5507 200.672L86.5459 202.997Z" fill="#221C38"/>
<path d="M86.5367 207.646L96.3697 207.667L96.3745 205.342L86.5415 205.321L86.5367 207.646Z" fill="#221C38"/>
<path d="M148.769 203.556L134.161 203.526L134.153 207.443L148.761 207.473C149.018 207.474 149.273 207.423 149.511 207.326C149.749 207.228 149.965 207.084 150.147 206.902C150.329 206.721 150.474 206.505 150.573 206.268C150.672 206.03 150.723 205.776 150.723 205.518C150.724 204.999 150.519 204.501 150.152 204.133C149.786 203.765 149.288 203.557 148.769 203.556Z" fill="#A1C2E2"/>
<path d="M148.803 187.154L134.195 187.124L134.188 191.041L148.794 191.071C149.313 191.072 149.812 190.867 150.18 190.5C150.548 190.134 150.756 189.636 150.757 189.117C150.758 188.597 150.552 188.099 150.186 187.731C149.82 187.363 149.322 187.155 148.803 187.154Z" fill="#A1C2E2"/>
<path d="M66.7 190.903L81.307 190.933L81.3153 187.014L66.7092 186.984C66.1896 186.983 65.6909 187.189 65.3227 187.555C64.9545 187.922 64.747 188.42 64.7457 188.94C64.7446 189.459 64.9498 189.958 65.3163 190.326C65.6828 190.694 66.1805 190.902 66.7 190.903Z" fill="#A1C2E2"/>
<path d="M66.6675 207.304L81.2736 207.334L81.2815 203.416L66.6755 203.386C66.156 203.385 65.6574 203.59 65.2892 203.957C64.921 204.323 64.7135 204.821 64.7123 205.34C64.7117 205.598 64.7618 205.852 64.8597 206.09C64.9577 206.328 65.1016 206.545 65.2831 206.727C65.4647 206.909 65.6804 207.054 65.918 207.153C66.1555 207.252 66.4102 207.303 66.6675 207.304Z" fill="#A1C2E2"/>
<path d="M148.101 260.086L124.979 263.61L150.967 256.606C150.4 258.038 149.397 259.255 148.101 260.086Z" fill="#A1C2E2"/>
<path d="M64.2578 256.429L89.7259 263.538L67.1097 259.922C65.8172 259.085 64.8198 257.863 64.2578 256.429Z" fill="#A1C2E2"/>
<path d="M187.844 179.321L152.042 180.359L152.633 184.431L187.844 179.321Z" fill="#A1C2E2"/>
<path d="M66.0274 192.493L62.0754 199.668L63.2651 200.795L66.5 197.384L66.0274 192.493Z" fill="#A1C2E2"/>
<path d="M227.72 159.948L192.117 175.737L193.541 178.496L227.72 159.948Z" fill="#A1C2E2"/>
<path d="M63.9268 200.809L60.9929 199L41.9468 232.889L63.9268 200.809Z" fill="#A1C2E2"/>
<path d="M148.057 271.736L144.985 296.864L148.026 296.87L148.057 271.736Z" fill="#A1C2E2"/>
<path d="M97.111 272.977L93.5758 296.759L97.0636 296.766L97.111 272.977Z" fill="#A1C2E2"/>
<path d="M161.6 96.0386C161.601 95.3103 161.577 94.6017 161.559 93.888L169.371 93.9044C169.779 93.8788 170.182 94.0068 170.501 94.2632C170.819 94.5196 171.03 94.8859 171.092 95.29L172.321 117.407C172.337 117.66 172.3 117.913 172.212 118.151C172.125 118.389 171.989 118.606 171.814 118.789C171.638 118.972 171.427 119.116 171.193 119.214C170.959 119.311 170.707 119.358 170.454 119.353L159.832 119.332C161.111 111.635 161.703 103.84 161.6 96.0386Z" fill="#7159C1"/>
<path d="M164.408 99.896C164.408 100.247 164.511 100.59 164.706 100.882C164.9 101.175 165.177 101.403 165.501 101.537C165.825 101.672 166.182 101.708 166.526 101.641C166.87 101.573 167.187 101.404 167.436 101.157C167.684 100.909 167.854 100.593 167.923 100.249C167.993 99.9052 167.958 99.5483 167.825 99.2237C167.691 98.8991 167.465 98.6214 167.173 98.4256C166.882 98.2299 166.539 98.1249 166.188 98.1239C165.955 98.1233 165.724 98.1686 165.508 98.2573C165.292 98.3461 165.096 98.4765 164.931 98.641C164.766 98.8056 164.634 99.0012 164.545 99.2165C164.455 99.4318 164.409 99.6627 164.408 99.896Z" fill="#2D2D2D"/>
<path d="M164.094 111.298C164.093 111.707 164.213 112.107 164.439 112.447C164.666 112.788 164.988 113.054 165.365 113.211C165.742 113.369 166.158 113.411 166.559 113.332C166.961 113.253 167.329 113.057 167.619 112.769C167.909 112.48 168.107 112.112 168.187 111.712C168.268 111.311 168.228 110.895 168.072 110.517C167.917 110.139 167.652 109.815 167.313 109.587C166.973 109.36 166.574 109.238 166.165 109.237C165.617 109.236 165.091 109.452 164.703 109.838C164.314 110.225 164.095 110.75 164.094 111.298Z" fill="#2D2D2D"/>
<path d="M45.0792 95.0671C45.1429 94.6633 45.3554 94.2979 45.6747 94.0427C45.9941 93.7875 46.3974 93.661 46.8053 93.6879L54.5964 93.7044C54.5758 94.4186 54.5489 95.1264 54.5464 95.8553C54.4112 103.655 54.9703 111.451 56.217 119.151L45.6158 119.129C45.3624 119.132 45.1111 119.084 44.8775 118.985C44.6439 118.887 44.4332 118.742 44.2586 118.558C44.084 118.375 43.9493 118.157 43.8629 117.919C43.7766 117.68 43.7405 117.427 43.7569 117.174L45.0792 95.0671Z" fill="#7159C1"/>
<path d="M51.7382 99.6952C51.7385 100.046 51.6346 100.39 51.4396 100.682C51.2446 100.974 50.9673 101.202 50.6428 101.336C50.3184 101.471 49.9613 101.506 49.6168 101.438C49.2723 101.369 48.9559 101.2 48.7076 100.951C48.4594 100.703 48.2904 100.386 48.2221 100.042C48.1538 99.6972 48.1893 99.3401 48.3241 99.0157C48.4588 98.6914 48.6867 98.4143 48.9791 98.2195C49.2714 98.0247 49.6149 97.9211 49.9661 97.9217C50.4361 97.9224 50.8867 98.1096 51.2189 98.4421C51.5511 98.7745 51.7379 99.2252 51.7382 99.6952Z" fill="#2D2D2D"/>
<path d="M52.0097 111.101C52.0089 111.51 51.8868 111.909 51.659 112.249C51.4311 112.588 51.1077 112.852 50.7296 113.008C50.3516 113.164 49.9359 113.204 49.535 113.123C49.1342 113.043 48.7663 112.845 48.4779 112.555C48.1894 112.265 47.9934 111.897 47.9145 111.496C47.8356 111.094 47.8775 110.679 48.0349 110.301C48.1922 109.924 48.4579 109.602 48.7984 109.375C49.1388 109.149 49.5388 109.029 49.9476 109.03C50.4957 109.031 51.0208 109.25 51.4075 109.638C51.7942 110.027 52.0108 110.553 52.0097 111.101Z" fill="#2D2D2D"/>
<path d="M156.983 80.4651C143.769 53.3711 111.092 42.1196 83.998 55.3343C56.904 68.5489 45.6526 101.225 58.8672 128.319C72.0818 155.413 104.758 166.665 131.852 153.45C158.946 140.236 170.198 107.559 156.983 80.4651Z" fill="#E8F4FC"/>
<path d="M160.18 108.347C160.229 84.7539 136.869 65.5794 108.004 65.5199C79.1399 65.4605 55.7012 84.5386 55.6526 108.132C55.604 131.726 78.964 150.9 107.829 150.96C136.693 151.019 160.132 131.941 160.18 108.347Z" fill="#BABABA"/>
<path d="M158.833 108.345C158.88 85.3597 136.122 66.6798 108.002 66.6219C79.8823 66.564 57.0482 85.15 57.0008 108.135C56.9535 131.12 79.7109 149.8 107.831 149.858C135.951 149.916 158.785 131.33 158.833 108.345Z" fill="black"/>
<path d="M91.2019 81.6418C89.7419 77.1095 78.1066 81.0025 72.2192 86.2539C66.3317 91.5052 63.6117 97.0275 66.3162 99.5854C69.9815 103.052 72.4442 95.5612 79.187 91.4103C83.1435 88.9747 92.7404 86.4189 91.2019 81.6418Z" fill="#918CA3"/>
<path d="M222.015 343.451H228.811L228.811 0H222.015L222.015 343.451Z" fill="#C8D1D6"/>
<path d="M228.809 100.191C277.077 117.806 325.344 82.582 373.609 100.191V12.135C325.346 -5.48001 277.079 29.744 228.809 12.135V100.191Z" fill="#7159C1"/>
<path d="M283.234 49H279.133V40.4688H271.135V49H267.033V29.0938H271.135V37.1602H279.133V29.0938H283.234V49ZM293.379 49.2734C291.21 49.2734 289.441 48.6081 288.074 47.2773C286.716 45.9466 286.037 44.1738 286.037 41.959V41.5762C286.037 40.0905 286.324 38.7643 286.898 37.5977C287.473 36.4219 288.284 35.5195 289.332 34.8906C290.389 34.2526 291.592 33.9336 292.941 33.9336C294.965 33.9336 296.555 34.5716 297.713 35.8477C298.88 37.1237 299.463 38.9329 299.463 41.2754V42.8887H290.043C290.171 43.8548 290.553 44.6296 291.191 45.2129C291.839 45.7962 292.654 46.0879 293.639 46.0879C295.161 46.0879 296.35 45.5365 297.207 44.4336L299.148 46.6074C298.556 47.446 297.754 48.1022 296.742 48.5762C295.73 49.041 294.609 49.2734 293.379 49.2734ZM292.928 37.1328C292.144 37.1328 291.506 37.3971 291.014 37.9258C290.531 38.4544 290.221 39.2109 290.084 40.1953H295.58V39.8809C295.562 39.0059 295.325 38.3314 294.869 37.8574C294.413 37.3743 293.766 37.1328 292.928 37.1328ZM305.889 49H301.924V28H305.889V49ZM313.326 49H309.361V28H313.326V49ZM315.979 41.4668C315.979 39.9993 316.261 38.6914 316.826 37.543C317.391 36.3945 318.202 35.5059 319.26 34.877C320.326 34.248 321.561 33.9336 322.965 33.9336C324.961 33.9336 326.588 34.5443 327.846 35.7656C329.113 36.987 329.819 38.6458 329.965 40.7422L329.992 41.7539C329.992 44.0234 329.359 45.8464 328.092 47.2227C326.825 48.5898 325.125 49.2734 322.992 49.2734C320.859 49.2734 319.155 48.5898 317.879 47.2227C316.612 45.8555 315.979 43.9961 315.979 41.6445V41.4668ZM319.93 41.7539C319.93 43.1576 320.194 44.2331 320.723 44.9805C321.251 45.7188 322.008 46.0879 322.992 46.0879C323.949 46.0879 324.697 45.7233 325.234 44.9941C325.772 44.2559 326.041 43.0801 326.041 41.4668C326.041 40.0905 325.772 39.0241 325.234 38.2676C324.697 37.5111 323.94 37.1328 322.965 37.1328C321.999 37.1328 321.251 37.5111 320.723 38.2676C320.194 39.015 319.93 40.1771 319.93 41.7539ZM333.451 53.9902L331.387 52.9102L331.879 52.0215C332.49 50.9095 332.804 49.8021 332.822 48.6992V45.6367H336.158L336.145 48.3711C336.135 49.3828 335.88 50.4036 335.379 51.4336C334.878 52.4635 334.235 53.3158 333.451 53.9902Z" fill="#9E87E9"/>
<path d="M278.299 76.2578L280.979 62.0938H285.066L280.65 82H276.521L273.281 68.6836L270.041 82H265.912L261.496 62.0938H265.584L268.277 76.2305L271.559 62.0938H275.031L278.299 76.2578ZM285.982 74.4668C285.982 72.9993 286.265 71.6914 286.83 70.543C287.395 69.3945 288.206 68.5059 289.264 67.877C290.33 67.248 291.565 66.9336 292.969 66.9336C294.965 66.9336 296.592 67.5443 297.85 68.7656C299.117 69.987 299.823 71.6458 299.969 73.7422L299.996 74.7539C299.996 77.0234 299.363 78.8464 298.096 80.2227C296.829 81.5898 295.129 82.2734 292.996 82.2734C290.863 82.2734 289.159 81.5898 287.883 80.2227C286.616 78.8555 285.982 76.9961 285.982 74.6445V74.4668ZM289.934 74.7539C289.934 76.1576 290.198 77.2331 290.727 77.9805C291.255 78.7188 292.012 79.0879 292.996 79.0879C293.953 79.0879 294.701 78.7233 295.238 77.9941C295.776 77.2559 296.045 76.0801 296.045 74.4668C296.045 73.0905 295.776 72.0241 295.238 71.2676C294.701 70.5111 293.944 70.1328 292.969 70.1328C292.003 70.1328 291.255 70.5111 290.727 71.2676C290.198 72.015 289.934 73.1771 289.934 74.7539ZM310.742 70.9121C310.204 70.8392 309.73 70.8027 309.32 70.8027C307.826 70.8027 306.846 71.3086 306.381 72.3203V82H302.43V67.207H306.162L306.271 68.9707C307.064 67.6126 308.163 66.9336 309.566 66.9336C310.004 66.9336 310.414 66.9928 310.797 67.1113L310.742 70.9121ZM316.826 82H312.861V61H316.826V82ZM319.479 74.4941C319.479 72.1882 319.993 70.3516 321.023 68.9844C322.062 67.6172 323.48 66.9336 325.275 66.9336C326.715 66.9336 327.905 67.4714 328.844 68.5469V61H332.809V82H329.24L329.049 80.4277C328.064 81.6582 326.798 82.2734 325.248 82.2734C323.507 82.2734 322.108 81.5898 321.051 80.2227C320.003 78.8464 319.479 76.9368 319.479 74.4941ZM323.43 74.7812C323.43 76.1667 323.671 77.2285 324.154 77.9668C324.637 78.7051 325.339 79.0742 326.26 79.0742C327.481 79.0742 328.342 78.5592 328.844 77.5293V71.6914C328.352 70.6615 327.499 70.1465 326.287 70.1465C324.382 70.1465 323.43 71.6914 323.43 74.7812ZM339.891 75.8887H336.609L336.145 62.0938H340.355L339.891 75.8887ZM338.25 78.0488C338.915 78.0488 339.449 78.2448 339.85 78.6367C340.26 79.0286 340.465 79.5299 340.465 80.1406C340.465 80.7422 340.26 81.2389 339.85 81.6309C339.449 82.0228 338.915 82.2188 338.25 82.2188C337.594 82.2188 337.061 82.0228 336.65 81.6309C336.249 81.2389 336.049 80.7422 336.049 80.1406C336.049 79.5391 336.249 79.0423 336.65 78.6504C337.061 78.2493 337.594 78.0488 338.25 78.0488Z" fill="white"/>
<path d="M224.736 130.399C224.716 128.599 224.836 123.953 224.836 123.953C224.844 123.376 224.738 122.803 224.525 122.267C224.311 121.731 223.994 121.243 223.592 120.829C223.19 120.415 222.71 120.085 222.18 119.857C221.65 119.629 221.08 119.507 220.504 119.5C219.927 119.492 219.354 119.597 218.818 119.811C218.282 120.024 217.793 120.341 217.379 120.743C216.544 121.556 216.066 122.667 216.05 123.832L215.924 133.29L222.143 146.111C222.143 146.111 224.832 139.999 224.736 130.399Z" fill="#A1C2E2"/>
</g>
<defs>
<clipPath id="clip0">
<rect width="373.608" height="359.804" fill="white"/>
</clipPath>
</defs>
</svg>
