<svg xmlns="http://www.w3.org/2000/svg" width="1439.422" height="349.889" viewBox="0 0 1439.422 349.889">
  <g id="Group_1176" data-name="Group 1176" transform="translate(0 -66)" opacity="0.999">
    <g id="Group_2617" data-name="Group 2617" transform="translate(1072.224 135.583)">
      <path id="Path_219" data-name="Path 219" d="M368.745,818.3l31.1-68.305h26.02s1.251,33.654,8.015,50.182,11.949,10.368,19.029,18.123,18.312,40.589,18.312,40.589L377.378,848.32,362.47,832.309Z" transform="translate(-343.865 -749.72)" fill="#111014"/>
      <path id="Path_220" data-name="Path 220" d="M362.184,845.9h0l45.559,7.655S371.988,844.7,362.184,818.6s6.345-69.468,6.345-69.468h-9.422L328.059,818.6,303.18,870.611l33.513-21.632Z" transform="translate(-303.18 -749.128)" fill="#1c1b22"/>
    </g>
    <g id="Group_2618" data-name="Group 2618" transform="translate(238.675 93.333)">
      <path id="Path_217" data-name="Path 217" d="M147.14,743.963l25.088-91.732,25.517-15.773,24.772-68.728h14.7s8.428,31.606,11.283,54.872-3,35.876,1.165,49.789,15.383,16.544,19.042,32.891,2.382,38.68,2.382,38.68Z" transform="translate(-145.828 -567.73)" fill="#111014"/>
      <path id="Path_218" data-name="Path 218" d="M193.6,629.066c-13.689,23.318-25.364,17.51-32.95,36.975s-16.538,79.185-16.538,79.185h36.3c-1.079-7.384-7.679-46.693,1.3-71.429s11.727-12.12,21.736-37.456,20.494-68.611,20.494-68.611h-4S207.29,605.748,193.6,629.066Z" transform="translate(-144.113 -567.73)" fill="#1c1b22"/>
    </g>
    <g id="Group_2234" data-name="Group 2234" transform="translate(1.038 66)">
      <path id="Path_111" data-name="Path 111" d="M1491.689,264.146c-57.034,0-103.866,56.423-146.97,55.853-41.2-.544-46.416,0-94.728,0-99,0-82.427,2.385-119.808,13.055-25.3,7.221-55.5,4.714-76.4-6.365h0c-5.425-2.869-23.651-8.61-46.866-8.61s-37.151,5.813-70.193,23.92c-28.374,15.551-65.695,24.195-104.469,24.195H587.98c-22.929,0-45.121-4.738-62.706-13.381h0c-33-16.2-74.58-25.075-117.551-25.075H377.65c-23.912,0-46.062-7.39-58.346-19.469l-65.378-62.632C235.173,227.2,173.375,228.5,159.853,222s-44.807-50.114-83.437-50.114H53.3V510.854H1491.689Z" transform="translate(-53.305 -171.885)" fill="#111014"/>
    </g>
    <path id="Union_100" data-name="Union 100" d="M0,181.917V0H120.351c58.868,0,70.381,70.9,124.933,70.9s109.179-.523,109.179-.523,28.276-1.809,47.419,5.144S439.164,101.3,439.164,101.3c56.832,46.5,148.07,80.62,250.442,80.62Zm764.252-.93s125.784-16.557,199.783-44.552c57.126-21.61,84.251-54.373,159.769-54.373h314.264V175.8c-7.256,4.907-120.98,6.047-267.267,6.047C1043.7,181.848,892.024,180.986,764.252,180.986Z" transform="translate(1.039 195.38)" fill="#15141a"/>
    <g id="Group_2236" data-name="Group 2236" transform="translate(0 313.879)">
      <path id="Path_163" data-name="Path 163" d="M1485.731,358.019s-55.987,18.987-137.209,22.346-187.678,0-187.678,0c-32.234,0-89.307-31.1-152.654-31.1s-71.727,11.925-132.114,12.716S811.434,350.856,752,352.089c-55.8,1.157-101.532,14.841-190.195,14.841H408.941a169.967,169.967,0,0,1-47.537-6.555l-35.148-10.337a215.184,215.184,0,0,0-60.088-8.278H46.49V443.77H1485.731Z" transform="translate(-46.49 -341.759)" fill="#19181f"/>
    </g>
  </g>
</svg>
