<svg xmlns="http://www.w3.org/2000/svg" width="23.495" height="27.84" viewBox="0 0 23.495 27.84">
  <path id="Union_126" data-name="Union 126" d="M1732.009-947.439l1.736-6.3a2.118,2.118,0,0,1,1.393-1.454l.1-.031a.561.561,0,0,1,.5.082c.406.3.76.519.859.58s.456.274.907.5a.562.562,0,0,1,.3.41l.016.1a2.12,2.12,0,0,1-.656,1.9c-1.288,1.186-3.714,3.418-4.805,4.422a.211.211,0,0,1-.145.058A.217.217,0,0,1,1732.009-947.439Zm6.066-6.988a10.815,10.815,0,0,1-1.174-.629,10.776,10.776,0,0,1-1.1-.758.231.231,0,0,1-.08-.238l.571-2.2a.57.57,0,0,0-.068-.445l-.807-1.285a.307.307,0,0,1-.047-.177c.006-.129.017-.359.024-.517a.1.1,0,0,1,.15-.08c.675.411,3.518,2.15,3.518,2.15s2.843,1.735,3.517,2.148a.1.1,0,0,1,0,.171l-.448.257a.3.3,0,0,1-.178.04l-1.512-.131a.567.567,0,0,0-.427.142l-1.692,1.511a.228.228,0,0,1-.152.058A.23.23,0,0,1,1738.075-954.427Zm9.471-5.359-2.6-1.569a.793.793,0,0,0-.815,0l-.852.5a.844.844,0,0,1-.866,0,1.208,1.208,0,0,0-1.571.165,3.139,3.139,0,0,1-3.7.128l-3.424-2.1h0c-.031-.019-.149-.11-.162-.121a1.151,1.151,0,0,1-.217-1.461,1.15,1.15,0,0,1,1.582-.381l.671.4a.125.125,0,0,0,.189-.089l.14-.922a.169.169,0,0,0-.08-.17l-.119-.072a.651.651,0,0,1-.247-.868.631.631,0,0,1,.875-.229l4.583,2.77a.2.2,0,0,0,.267-.053l4.761-6.459a.857.857,0,0,1,.819-.339l1.132.172.821.124a.057.057,0,0,0,.058-.026.056.056,0,0,0-.012-.073.753.753,0,0,1-.127-1.029l1.628-2.21a.756.756,0,0,1,.721-.3l2.984.453a.752.752,0,0,1,.351.151h0a.4.4,0,0,1,.009.565l-2.043,2.755a.18.18,0,0,0,.059.247.185.185,0,0,0,.066.026l1.522.23c.022,0,.041.009.061.013.315.083.7.419.181,1.11l-6.346,8.595a.231.231,0,0,1-.186.093A.233.233,0,0,1,1747.545-959.786Z" transform="translate(-1731.497 974.504)" fill="#fff" stroke="rgba(0,0,0,0)" stroke-width="1"/>
</svg>
